# xmcd
#
# Track frame offsets:
#	150
#	15515
#	37120
#	50425
#	65970
#	80337
#	93030
#	106507
#	126010
#	140775
#	156932
#	172527
#
# Disc length: 2535 seconds
#
# Revision: 1
# Processed by: cddbd v1.5.2PL0 Copyright (c) Steve Scherf et al.
# Submitted via: audiograbber 1.83.01
#
DISCID=9109e50c
DTITLE=Hunter and Suzy Owens - Incognito
DYEAR=1998
DGENRE=Alternative
TTITLE0=One of Those Days
TTITLE1=Falling Out of Love
TTITLE2=Dreamtrain
TTITLE3=Save a Little Love
TTITLE4=It Would Be Easier
TTITLE5=Valentine's Day
TTITLE6=45 Going on 21
TTITLE7=Blacker Than Blue
TTITLE8=Maggie
TTITLE9=Too Late to Cry
TTITLE10=O.C.D.
TTITLE11=Lonely in Love
EXTD=
EXTT0=
EXTT1=
EXTT2=
EXTT3=
EXTT4=
EXTT5=
EXTT6=
EXTT7=
EXTT8=
EXTT9=
EXTT10=
EXTT11=
PLAYORDER=
